<mxfile host="app.diagrams.net" modified="2023-04-29T04:54:29.239Z" agent="Mozilla/5.0 (Windows NT 10.0; Win64; x64) AppleWebKit/537.36 (KHTML, like Gecko) Chrome/112.0.0.0 Safari/537.36" etag="ZiL21W-BYxFnDxQeN97E" version="21.2.3" type="github">
  <diagram name="Page-1" id="BdLk822e7N_mniXmQqlP">
    <mxGraphModel dx="1434" dy="768" grid="1" gridSize="10" guides="1" tooltips="1" connect="1" arrows="1" fold="1" page="1" pageScale="1" pageWidth="850" pageHeight="1100" math="0" shadow="0">
      <root>
        <mxCell id="0" />
        <mxCell id="1" parent="0" />
        <mxCell id="yGkHW-RjPtjjpmqsrrO1-6" style="edgeStyle=orthogonalEdgeStyle;rounded=0;orthogonalLoop=1;jettySize=auto;html=1;" edge="1" parent="1" source="yGkHW-RjPtjjpmqsrrO1-1">
          <mxGeometry relative="1" as="geometry">
            <mxPoint x="240" y="200" as="targetPoint" />
            <Array as="points">
              <mxPoint x="160" y="260" />
              <mxPoint x="241" y="260" />
            </Array>
          </mxGeometry>
        </mxCell>
        <mxCell id="yGkHW-RjPtjjpmqsrrO1-1" value="" style="rounded=0;whiteSpace=wrap;html=1;" vertex="1" parent="1">
          <mxGeometry x="80" y="140" width="160" height="90" as="geometry" />
        </mxCell>
        <mxCell id="yGkHW-RjPtjjpmqsrrO1-5" value="" style="shape=flexArrow;endArrow=classic;html=1;rounded=0;endWidth=20;endSize=6.5;" edge="1" parent="1">
          <mxGeometry width="50" height="50" relative="1" as="geometry">
            <mxPoint x="240" y="184.5" as="sourcePoint" />
            <mxPoint x="320" y="185" as="targetPoint" />
            <Array as="points" />
          </mxGeometry>
        </mxCell>
      </root>
    </mxGraphModel>
  </diagram>
</mxfile>
